<svg width="778" height="1221" viewBox="0 0 778 1221" fill="none" xmlns="http://www.w3.org/2000/svg">
<g opacity="0.3">
<path d="M145.179 762.177C146.284 771.198 147.107 780.217 148.636 789.24C157.941 847.43 179.676 902.959 207.494 954.303C236.017 1005.65 273.447 1052.07 317.957 1091C362.891 1129.48 414.622 1160.32 470.189 1182C525.756 1203.69 585.158 1216.68 645.579 1218.39C705.999 1219.96 766.169 1209.65 824.097 1192.73C939.396 1156.62 1041.81 1080.34 1107.58 980.64L1106.6 980.036C1037.58 1077.17 935.881 1150.9 821.858 1185.51C764.637 1201.68 705.317 1211.09 646.027 1208.93C586.88 1206.31 528.32 1195.28 473.315 1174.35C418.311 1153.57 367.141 1123.78 322.205 1086.2C277.693 1048.17 240.119 1002.66 211.17 952.212C177.299 894.535 157.423 829.846 149.975 763.547C148.423 763.091 146.73 762.784 145.179 762.177Z" fill="black" fill-opacity="0.25"/>
<path d="M1067.14 339.808C1024.51 280.726 968.006 232.118 904.271 195.962C902.571 198.061 900.73 199.859 898.607 201.655C961.494 238.259 1016.58 287.463 1058.79 345.641C1127.88 439.244 1158.49 557.965 1151.27 673.846C1143.19 790.326 1093.32 903.65 1013.44 991.311C934.123 1080.18 822.265 1137.96 704.854 1159.79L704.992 1160.84C823.382 1142.62 937.639 1085.75 1019.36 996.594C1101.78 908.942 1154.9 793.524 1162.14 674.636C1169.37 556.2 1137.92 435.22 1067.14 339.808Z" fill="black" fill-opacity="0.25"/>
<path d="M226.004 1028.27C239.31 962.174 153.995 921.436 175.668 841.843C187.776 855.115 190.966 876.772 205.051 889.599C224.075 903.947 209.504 861.204 206.841 853.679C222.911 810.444 167.498 781.236 158.287 740.617C154.818 717.907 176.337 696.187 179.787 673.2C182.205 666.444 186.698 675.93 187.679 678.79C198.902 706.038 222.723 721.455 230.834 751.096C234.773 756.371 234.584 774.71 243.066 770.681C254.437 742.311 237.582 708.881 219.709 686.871C200.269 669.665 179.991 649.3 189.104 620.622C193.209 616.728 194.595 626.353 196.848 628.766C206.123 645.485 228.554 652.329 246.211 649.686C256.521 648.67 260.234 632.749 250.221 628.204C238.791 625.608 226.078 627.667 216.642 618.615C200.442 604.578 193.174 576.592 199.158 556.17C210.783 538.624 216.775 515.346 227.691 498.699C224.205 535.515 236.091 632.213 288.988 598.428C293.539 586.118 267.712 581.818 263.083 570.076C248.486 537.405 250.142 498.629 251.648 462.858C252.079 460.154 252.651 457.3 253.223 454.596C262.431 443.205 273.908 428.063 268.188 455.401C279.034 465.21 308.294 399.925 326.238 395.329C332.681 414.743 325.686 443.58 336.78 466.317C340.137 478.505 355.514 483.52 357.094 473.304C357.945 471.954 358.231 470.302 358.377 468.649C358.522 467.146 358.385 465.642 358.247 464.289L356.601 446.245C356.328 442.786 356.054 439.328 355.498 436.019C355.221 434.064 354.803 431.958 354.385 430.002C353.967 427.896 353.548 425.941 353.272 423.835C351.053 408.495 353.494 393.021 355.794 377.997L355.229 377.845C355.519 374.99 355.527 372.134 358.496 370.641C440.558 307.197 380.248 367.561 404.664 371.556C419.802 360.336 423.109 337.8 432.471 321.599C444.109 299.243 460.826 277.957 477.674 260.73C481.613 266.155 469.146 281.895 480.155 283.437C521.909 245.554 551.176 177.113 611.635 166.805C552.618 219.057 564.41 245.104 627.955 189.11C658.778 173.286 696.325 177.327 728.694 163.914C751.729 156.329 717.893 190.632 716.178 198.292C685.753 223.889 640.953 239.363 625.453 280.495C623.791 321.527 689.96 234.727 705.354 233.278C717.072 233.62 698.889 275.194 715.984 271.196C739.185 254.443 729.411 212.92 757.117 200.993C787.669 180.808 817.048 176.854 851.755 187.349C872.231 186.37 897.588 208.106 915.132 194.79C901.55 151.6 788.34 140.826 748.112 135.873C703.63 138.27 701.819 128.944 663.037 111.369C634.831 98.6425 605.065 88.7661 573.995 91.5119C570.888 91.8015 568.208 90.7397 566.663 87.7279C554.14 71.1483 542.186 53.2178 529.379 37.5392C497.369 21.9427 529.848 73.4672 535.892 83.8606C530.787 92.1101 423.394 70.9848 456.631 102.82C505.467 109.758 556.738 103.175 595.04 141.943C597.558 151.122 554.802 141.049 546.89 142.975C493.94 143.388 445.141 123.072 395.193 109.667C366.771 125.5 441.12 148.462 453.258 150.309C458.758 152.734 472.317 151.128 473.857 156.245C446.173 159.754 417.372 158.75 389.42 156.696C375.986 164.465 305.455 86.3496 320.581 132.401C323.535 136.62 341.428 151.565 327.311 150.613C290.33 145.672 284.418 139.037 290.592 100.126C294.046 75.6364 319.187 72.569 335.732 63.0073C333.811 41.9558 307.557 38.8562 290.449 47.8146L290.027 47.2118C287.481 49.0066 285.075 51.1026 282.81 53.3493C282.668 53.4992 282.526 53.6489 282.385 53.7988C279.412 56.7946 276.72 60.092 274.31 63.6911C233.535 105.485 289.137 169.719 204.73 106.135C154.273 71.6829 181.81 -36.1484 152.169 13.3516C136.591 83.796 192.875 157.051 261.054 164.057C274.588 171.922 283.014 189.088 297.253 197.557C323.897 213.134 282.828 206.224 272.814 202.13C257.023 193.506 49.4198 157.293 85.7391 198.459C122.429 206.406 167.772 199.201 200.195 218.557C192.411 225.595 172.378 219.36 168.389 232.725C176.548 244.028 220.505 227.047 235.31 234.766C211.11 255.875 160.123 261.707 146.758 296.534C148.576 303.004 156.495 298.522 160.452 297.033C200.042 276.43 241.604 257.336 284.835 247.719C279.996 262.433 257.661 272.125 246.052 283.808C240.389 289.651 235.432 295.345 227.378 297.421C194.592 308.128 159.98 315.521 125.38 318.254C107.578 322.249 88.703 305.347 73.155 311.605C69.5505 339.702 123.061 340.643 142.269 338.607C149.888 340.889 124.3 352.823 121.748 356.572C104.206 369.438 99.5132 381.897 126.777 377.034C143.159 375.889 161.274 359.869 175.109 360.821C150.184 388.842 68.468 428.386 57.6096 370.024C56.768 367.916 53.3834 366.401 51.6835 368.5C40.2121 381.537 46.2331 400.498 56.3679 412.259C94.6914 443.06 148.41 418.899 179.273 387.742C182.244 385.498 205.132 380.168 201.864 387.973C193.374 394.707 188.546 405.062 181.043 412.401C160.961 424.506 133.425 425.911 118.266 444.797C121.046 461.493 177.865 439.748 191.281 438.593C191.563 438.895 191.14 438.592 191.139 438.743C172.15 464.831 126.385 471.433 111.479 501.895C133.221 502.723 156.162 477.1 179.333 471.47C184.115 478.552 150.743 497.524 143.388 502.158C105.341 526.976 55.8494 554.459 14.9989 518.237C9.64666 513.258 1.86188 520.446 3.2579 526.463C29.3681 583.828 128.018 547.951 165.788 521.028C144.074 563.04 90.5168 579.685 50.3621 600.437C21.7783 623.936 59.0775 615.049 72.2253 608.782C158.067 557.377 68.2394 620.944 71.9121 673.569C92.4846 689.425 136.523 588.567 157.011 582.928C154.52 617.041 112.769 654.323 125.391 686.536C121.826 699.901 66.4875 749.16 81.0133 755.675C99.6844 743.115 114.995 719.87 131.266 707.301C125.488 756.284 83.7319 795.369 81.622 845.568C86.5323 910.674 113.863 773.98 128.851 766.217C140.557 770.919 126.912 805.143 128.009 817.172C124.657 856.544 147.724 890.147 156.667 925.353C157.897 940.841 162.495 1017.22 183.565 1005.27C187.578 982.735 161.2 920.108 199.319 974.81C209.304 989.727 215.751 1007.64 216.974 1025.83C216.818 1031.24 224.013 1033.67 226.004 1028.27ZM324.131 124.898C330.489 123.267 361.357 143.669 352.589 148.899C340.301 150.359 325.939 135.276 324.131 124.898ZM520.886 45.476C523.057 25.6416 551.432 80.6088 557.068 85.2887C543.902 98.3197 523.961 57.2118 520.886 45.476ZM181.601 1000.3C168.164 1009.42 166.732 963.57 163.506 955.442C159.247 910.932 184.028 990.388 181.601 1000.3ZM121.662 761.682C109.72 792.154 101.02 825.043 88.7997 854.312C71.5848 850.192 124.27 736.438 121.662 761.682ZM122.803 703.964C123.634 710.28 93.329 743.693 90.8026 737.972C95.9044 730.926 115.892 701.083 122.803 703.964ZM111.413 580.06C109.416 587.569 46.0676 622.519 47.3758 608.393C66.1841 597.337 92.6262 582.85 111.413 580.06ZM227.211 466.68C213.356 526.909 158.328 565.495 124.031 613.626C83.0354 685.333 54.8057 681.776 105.131 605.893C143.942 559.432 182.5 502.147 227.211 466.68ZM198.117 469.883C202.365 465.088 219.209 449.365 223.006 455.241C188.286 503.069 133.655 551.879 72.1 549.556C72.0996 549.706 72.0996 549.707 72.0992 549.857C52.7472 552.945 5.59183 551.425 11.5982 522.735C53.8974 545.132 69.144 546.088 114.668 523.702C143.935 509.075 171.381 488.729 198.117 469.883ZM227.738 428.05C237.297 443.717 171.154 467.533 158.422 476.808C58.3032 534.325 203.439 432.774 227.738 428.05ZM232.481 396.349C237.566 395.465 243.654 389.324 246.469 392.941C241.582 425.393 154.269 445.677 125.883 447.831C116.598 435.171 218.613 407.874 232.481 396.349ZM231.405 376.052C242.958 385.714 207.75 404.679 198.994 405.249C189.411 398.301 223.072 377.225 231.405 376.052ZM298.95 355.999C277.774 354.721 358.493 265.267 368.531 260.493L368.388 260.793C376.46 251.802 388.928 235.913 401.627 239.115C403.306 244.833 360.865 276.099 378.788 279.169C383.294 283.995 364.756 299.562 359.804 303.453C337.034 317.352 322.705 343.306 298.95 355.999ZM340.685 324.881C354.826 316.814 339.653 341.412 337.802 347.118C319.821 365.693 298.314 383.054 275.83 395.751C273.067 372.592 326.511 345.575 340.685 324.881ZM386.733 265.067C387.335 250.939 481.505 200.315 453.624 225.169C451.063 232.375 382.739 280.085 386.733 265.067ZM453.309 237.494C453.59 237.796 453.731 238.097 453.871 238.548C453.73 238.247 453.59 237.796 453.309 237.494ZM277.81 341.193C264.787 353.473 259.794 372.846 243.674 381.808C238.543 346.615 275.771 311.422 303.072 292.579C315.238 283.603 340.014 258.738 353.706 260.139C337.52 293.904 303.154 314.826 277.81 341.193ZM315.828 274.285C314.544 279.241 285.136 294.169 284.163 288.453C289.693 279.604 307.652 269.145 315.828 274.285ZM244.345 341.825C240.636 356.243 221.84 362.64 209.131 363.046C212.26 354.489 235.74 338.638 244.345 341.825ZM218.44 366.837C218.581 366.988 218.721 367.289 218.721 367.439C218.58 367.288 218.439 367.137 218.299 366.836C218.298 366.987 218.439 366.987 218.44 366.837ZM218.157 366.986C203.691 391.136 167.021 375.673 218.157 366.986V366.986ZM104.349 421.899C80.7642 423.77 43.946 411.012 52.2154 380.828C58.0112 378.293 58.5422 391.072 63.6196 393.194C96.8668 421.422 147.781 389.885 176.927 367.441C250.329 321.554 134.965 430.576 104.349 421.899ZM258.696 307.904C283.986 301.681 263.472 316.94 255.264 324.127C241.68 335.052 223.18 336.489 206.932 340.189C177.125 345.796 147.108 377.406 117.195 369.784C151.466 331.424 211.362 320.513 258.696 307.904ZM203.342 309.962C175.181 333.613 103.978 348.693 78.0828 316.884C84.4505 311.645 94.8784 319.348 102.359 320.277C136.084 328.363 170.15 314.054 203.342 309.962ZM336.837 231.97C361.836 229.203 268.062 290.2 263.799 300.106C243.724 309.956 217.027 313.919 249.286 288.78C276.173 266.328 301.103 236.503 336.837 231.97ZM205.814 229.701C187.591 232.943 161.05 231.496 196.228 223.804C221.237 217.429 254.102 229.872 205.814 229.701ZM288.86 220.977C305.397 214.572 328.57 208.04 343.362 220.719C281.599 243.348 218.012 262.213 159.193 292.669C150.354 271.744 266.527 230.067 288.999 221.578C289 221.278 288.859 221.127 288.86 220.977ZM284.512 210.138C285.498 210.743 286.482 212.701 284.645 212.995C239.709 226.665 194.155 206.961 149.699 199.288C134.026 199.232 48.8975 194.57 108.649 184.711C108.65 184.561 108.65 184.561 108.65 184.411C145.242 176.123 181.629 191.584 217.911 193.667C240.35 197.655 263.071 202.245 284.512 210.138ZM309.277 189.031C314.198 196.715 348.063 205.103 342.823 211.097C310.062 212.484 252.055 149.895 309.277 189.031ZM364.573 208.919C361.915 199.44 383.665 197.262 390.164 195.782C426.89 190.05 375.704 217.677 364.573 208.919ZM307.196 175.044C325.688 176.763 437.78 183.174 363.762 195.087C342.713 199.371 320.129 196.586 305.492 178.495C304.508 176.989 305.502 175.038 307.196 175.044ZM261.324 115.505C256.429 98.0507 268.046 83.06 275.147 67.7527C277.274 64.3029 279.683 61.1549 282.373 58.158C294.533 51.5871 307.686 43.6669 321.078 51.5311C323.472 54.0949 331.37 57.43 326.982 61.4731C291.514 72.0197 280.568 99.7899 284.426 135.88C276.626 148.93 260.167 126.023 261.324 115.505ZM425.949 172.309C375.526 178.143 323.149 175.702 274.052 161.097C213.347 157.574 159.4 108.379 155.052 44.0269C154.797 33.9546 151.025 18.759 160.927 11.5789C168.277 8.74893 164.573 21.062 165.692 25.1246C173.358 169.308 357.362 159.439 459.72 162.508C515.219 159.398 441.329 176.121 425.949 172.309ZM422.576 219.497C403.495 226.945 385.253 237.253 365.474 241.842C353.316 247.511 341.987 259.947 328.152 259.297C362.182 205.153 474.509 176.39 537.101 160.528C594.572 158.928 433.587 220.438 422.576 219.497ZM487.453 140.509C496.766 142.647 561.559 148.739 521.307 152.956C492.929 152.254 402.722 145.62 395.885 114.78C426.515 118.346 455.264 139.192 487.453 140.509ZM597.329 130.978C595.896 138.94 579.55 126.255 577.585 122.039C583.67 116.95 593.249 125.252 597.329 130.978ZM607.217 129.21C611.036 126.818 630.78 135.456 622.158 139.033C616.648 140.216 607.909 134.624 607.217 129.21ZM533.472 91.368C577.798 94.8324 628.586 110.947 662.543 137.674C623.021 132.873 585.522 110.643 544.585 107.191C519.894 100.038 474.689 108.596 456.09 93.799C470.242 81.8237 513.14 91.2958 533.472 91.368ZM695.162 136.587C664.702 122.198 629.564 114.708 600.522 98.22C613.949 93.1568 692.654 123.951 695.162 136.587ZM799.054 147.177C816.559 148.592 833.201 155.716 850.277 158.783C801.295 153.95 749.194 153.915 699.071 153.587C711.114 137.696 745.56 140.073 765.884 143.151C776.039 147.096 788.326 146.237 799.054 147.177ZM852.253 159.091C852.112 159.091 852.112 159.241 851.97 159.24L851.971 159.09C852.112 159.091 852.253 159.091 852.253 159.091ZM856.001 183.456C836.946 180.983 807.308 176.068 848.4 174.41C856.457 171.131 919.126 179.321 908.499 193.413C890.84 197.108 873.931 183.971 856.001 183.456ZM731.088 219.69C733.066 219.246 735.319 221.359 734.749 223.311C731.905 230.817 720.767 278.128 713.341 256.305C715.072 242.632 713.292 221.581 731.088 219.69ZM808.597 169.308C826.672 168.32 747.247 196.148 742.424 204.548C701.424 224.395 671.257 259.463 634.76 285.038C624.845 243.665 770.038 173.831 808.597 169.308ZM748.3 171.8C749.12 182.024 739.068 192.06 729.469 191.274C730.334 184.513 741.093 173.728 748.3 171.8ZM802.41 159.515C804.669 159.674 803.815 162.226 802.683 163.124C787.138 168.33 771.587 175.49 755.621 179.492C754.774 179.489 754.353 178.586 754.214 177.683C762.177 156.516 784.2 157.947 802.41 159.515ZM689.028 160.315C693.829 160.182 715.018 156.349 715.429 161.311C706.096 166.389 695.083 166.5 685.33 170.524C659.485 172.837 671.236 160.854 689.028 160.315ZM679.039 146.751C679.039 146.902 679.039 146.901 679.038 147.052C682.143 147.664 690.907 143.937 690.473 147.994C648.506 160.021 618.181 200.951 579.599 214.493C594.103 175.912 640.058 150.822 679.039 146.751ZM487.715 254.602C493.26 240.191 507.253 234.529 517.302 225.546C517.302 225.696 517.302 225.696 517.301 225.846C517.16 225.846 517.16 225.846 517.019 225.845C519.539 233.821 491.631 268.897 483.994 273.379C479.913 268.404 486.571 260.16 487.715 254.602ZM609.279 150.412C614.505 149.528 619.732 148.495 624.959 147.611C643.024 150.682 603.747 159.862 599.644 163.004C497.979 217.66 464.263 259.931 407.104 356.834C417.248 258.711 517.877 168.426 609.279 150.412ZM372.022 328.149C380.267 307.284 404.048 284.369 424.956 280.535C421.522 297.509 387.419 325.798 372.022 328.149ZM364.737 359.99C360.128 340.733 387.977 328.055 401.277 317.73C402.549 317.284 403.817 318.34 403.531 319.692C400.087 340.424 380.154 349.673 364.737 359.99ZM337.745 368.914C343.719 352.099 345.602 334.519 355.949 319.523C370.123 298.83 388.667 280.857 407.912 265.142C419.09 256.012 438.199 238.042 453.87 238.999C453.582 241.103 441.273 250.529 439.716 251.877C434.621 256.368 429.244 260.859 424.008 265.199C413.536 274.031 403.064 283.013 393.295 292.749C381.261 304.882 371.199 319.127 363.815 334.734C359.982 342.837 356.852 351.394 354.57 360.105C353.287 364.76 350.857 376.176 352.394 381.893C350.24 395.715 348.508 409.839 350.588 423.976C350.865 426.082 351.283 428.188 351.701 430.294C352.12 432.249 352.397 434.204 352.815 436.16C353.371 439.469 353.645 442.777 353.919 446.085L355.565 464.279C355.563 464.73 355.703 465.332 355.702 465.783C351.731 472.383 346.786 473.418 342.712 465.587C333.159 447.514 333.23 420.908 333.565 400.917C333.452 390.244 334.046 379.273 337.745 368.914ZM330.811 374.752C331.9 389.787 316.216 394.091 308.705 404.436C297.233 417.774 288.716 434.88 276.118 446.56C276.603 423.714 310.466 379.49 330.811 374.752ZM259.057 437.931C255.832 429.202 269.853 413.167 278.182 413.798C282.126 417.269 263.573 438.699 259.057 437.931ZM266.169 364.751C283.603 339.86 303.257 329.107 279.995 369.009C273.471 380.11 269.627 391.971 264.795 403.83C262.947 408.483 260.254 412.532 258.97 417.338C256.69 425.447 253.423 432.801 252.695 441.066C252.26 445.273 250.273 449.024 250.686 453.084C249.257 459.392 248.252 465.853 247.388 472.163C247.101 473.966 246.813 475.919 246.808 477.723C246.802 480.278 246.936 482.684 247.212 485.09C244.427 523.712 251.205 576.648 279.27 589.074C298.434 603.873 255.65 604.473 252.015 590.931C213.362 524.353 234.085 430.477 266.169 364.751ZM129.661 673.473C127.608 649.264 150.544 625.595 157.103 601.718C164.213 582.803 178.726 540.765 199.189 544.746C175.78 586.602 163.353 640.523 129.661 673.473ZM195.929 602.607C196.638 601.558 198.474 601.113 199.036 602.168C204.658 612.259 211.831 622.656 222.266 627.654C231.425 634.601 244.291 628.333 252.177 636.028C256.955 644.613 243.255 646.067 237.886 647.702C216.144 646.572 190.924 626.49 195.929 602.607ZM188.283 664.061C213.803 677.68 240.245 716.256 243.263 749.637C245.168 776.551 235.905 755.774 232.265 744.036C223.166 714.091 193.141 695.645 188.283 664.061ZM165.748 695.999C154.208 681.527 160.058 658.399 163.634 641.275C161.249 635.555 183.716 575.807 186.352 593.404C185.694 628.727 183.196 665.546 165.748 695.999ZM202.916 842.992C188.145 822.497 171.686 799.439 164.41 774.461C163.317 760.627 188.908 800.853 191.58 804.771C196.927 811.855 217.89 840.19 202.916 842.992ZM165.456 806.031C162.85 776.86 219.197 879.578 210.282 887.062C195.756 880.547 171.197 823.94 165.456 806.031ZM161.615 870.054C144.715 853.609 143.556 811.515 139.812 785.797C137.509 749.111 141.709 709.442 145.618 672.929C151.164 657.916 157.948 655.535 153.38 674.309C151.438 714.588 145.821 756.206 155.034 796.073C163.161 819.552 172.127 846.19 161.615 870.054ZM221.644 1021.94C209.677 955.455 142.994 917.037 134.846 848.012C136.637 811.791 143.828 815.575 147.975 848.81C154.728 911.367 216.613 948.866 224.639 1010.68C225.759 1013.99 225.17 1023.15 221.644 1021.94Z" fill="black" fill-opacity="0.25"/>
</g>
</svg>
